<svg width="66" height="66" viewBox="0 0 66 66" fill="none" xmlns="http://www.w3.org/2000/svg">
<circle cx="33.1348" cy="33.3594" r="31.5" stroke="url(#paint0_linear_221_154)" stroke-width="2"/>
<path d="M31.2817 29.0214V24.7878H50.3327V29.0214H31.2817ZM33.3985 27.963H35.5153V25.8462H33.3985V27.963ZM31.2817 22.6711V18.4375H50.3327V22.6711H31.2817ZM33.3985 21.6127H35.5153V19.4959H33.3985V21.6127Z" fill="url(#paint1_linear_221_154)"/>
<path d="M37.4955 48.4381L26.2628 45.309V47.6357H16.6348V29.9844H29.3919L39.3408 33.6751C40.2234 33.9961 40.9391 34.5577 41.4879 35.36C42.0356 36.1624 42.3095 37.0449 42.3095 38.0077H45.5188C46.856 38.0077 47.9927 38.449 48.9287 39.3316C49.8648 40.2141 50.3328 41.3775 50.3328 42.8217V44.4264L37.4955 48.4381ZM19.8441 44.4264H23.0534V33.1937H19.8441V44.4264ZM37.4152 45.0683L46.963 42.0996C46.8828 41.8054 46.702 41.5845 46.4206 41.4369C46.1404 41.2903 45.8398 41.2171 45.5188 41.2171H37.8164C36.9873 41.2171 36.2385 41.1636 35.5699 41.0566C34.9013 40.9496 34.1792 40.7624 33.4036 40.495L30.6355 39.5322L31.5582 36.4833L34.7675 37.5263C35.2489 37.6868 35.8106 37.8071 36.4524 37.8874C37.0943 37.9676 37.9769 38.0077 39.1001 38.0077C39.1001 37.7135 39.0135 37.4327 38.8402 37.1653C38.6658 36.8978 38.4583 36.724 38.2176 36.6438L28.8303 33.1937H26.2628V42.0194L37.4152 45.0683Z" fill="url(#paint2_linear_221_154)"/>
<defs>
<linearGradient id="paint0_linear_221_154" x1="6.6859" y1="15.279" x2="42.0994" y2="14.5929" gradientUnits="userSpaceOnUse">
<stop stop-color="#008AD4"/>
<stop offset="1" stop-color="#00D1FF"/>
</linearGradient>
<linearGradient id="paint1_linear_221_154" x1="33.0553" y1="20.7854" x2="43.426" y2="20.4238" gradientUnits="userSpaceOnUse">
<stop stop-color="#008AD4"/>
<stop offset="1" stop-color="#00D1FF"/>
</linearGradient>
<linearGradient id="paint2_linear_221_154" x1="19.7719" y1="34.0782" x2="38.1153" y2="33.4292" gradientUnits="userSpaceOnUse">
<stop stop-color="#008AD4"/>
<stop offset="1" stop-color="#00D1FF"/>
</linearGradient>
</defs>
</svg>
