<svg width="66" height="66" viewBox="0 0 66 66" fill="none" xmlns="http://www.w3.org/2000/svg">
<circle cx="33.1348" cy="33.3594" r="31.5" stroke="url(#paint0_linear_221_144)" stroke-width="2"/>
<path d="M30.7524 31.0551C28.8112 31.0551 27.1495 30.364 25.7671 28.9816C24.3848 27.5993 23.6936 25.9375 23.6936 23.9963C23.6936 22.0551 24.3848 20.3934 25.7671 19.011C27.1495 17.6287 28.8112 16.9375 30.7524 16.9375C32.6936 16.9375 34.3554 17.6287 35.7377 19.011C37.1201 20.3934 37.8112 22.0551 37.8112 23.9963C37.8112 25.9375 37.1201 27.5993 35.7377 28.9816C34.3554 30.364 32.6936 31.0551 30.7524 31.0551ZM16.6348 45.1728V40.2316C16.6348 39.261 16.8848 38.3493 17.3848 37.4963C17.8848 36.6434 18.5759 35.9963 19.4583 35.5551C20.9583 34.7904 22.6495 34.1434 24.5318 33.614C26.4142 33.0846 28.4877 32.8199 30.7524 32.8199H31.3701C31.5465 32.8199 31.723 32.8493 31.8995 32.9081C31.6642 33.4375 31.4654 33.9893 31.303 34.5634C31.1418 35.1363 31.0171 35.7316 30.9289 36.3493H30.7524C28.6642 36.3493 26.7889 36.614 25.1265 37.1434C23.4654 37.6728 22.1054 38.2022 21.0465 38.7316C20.7818 38.8787 20.5689 39.0846 20.4077 39.3493C20.2454 39.614 20.1642 39.9081 20.1642 40.2316V41.6434H31.2818C31.4583 42.261 31.6936 42.8716 31.9877 43.4751C32.2818 44.0775 32.6054 44.6434 32.9583 45.1728H16.6348ZM41.3406 46.9375L40.8112 44.2904C40.4583 44.1434 40.1271 43.9893 39.8177 43.8281C39.5095 43.6657 39.1936 43.4669 38.8701 43.2316L36.3112 44.0257L34.5465 41.0257L36.5759 39.261C36.5171 38.8493 36.4877 38.4669 36.4877 38.114C36.4877 37.761 36.5171 37.3787 36.5759 36.9669L34.5465 35.2022L36.3112 32.2022L38.8701 32.9963C39.1936 32.761 39.5095 32.5622 39.8177 32.3999C40.1271 32.2387 40.4583 32.0846 40.8112 31.9375L41.3406 29.2904H44.8701L45.3995 31.9375C45.7524 32.0846 46.0836 32.2463 46.393 32.4228C46.7012 32.5993 47.0171 32.8199 47.3406 33.0846L49.8995 32.2022L51.6642 35.2904L49.6348 37.0551C49.6936 37.4081 49.723 37.7757 49.723 38.1581C49.723 38.5404 49.6936 38.9081 49.6348 39.261L51.6642 41.0257L49.8995 44.0257L47.3406 43.2316C47.0171 43.4669 46.7012 43.6657 46.393 43.8281C46.0836 43.9893 45.7524 44.1434 45.3995 44.2904L44.8701 46.9375H41.3406ZM43.1054 41.6434C44.0759 41.6434 44.9071 41.2981 45.5989 40.6075C46.2895 39.9157 46.6348 39.0846 46.6348 38.114C46.6348 37.1434 46.2895 36.3122 45.5989 35.6204C44.9071 34.9299 44.0759 34.5846 43.1054 34.5846C42.1348 34.5846 41.3042 34.9299 40.6136 35.6204C39.9218 36.3122 39.5759 37.1434 39.5759 38.114C39.5759 39.0846 39.9218 39.9157 40.6136 40.6075C41.3042 41.2981 42.1348 41.6434 43.1054 41.6434ZM30.7524 27.5257C31.723 27.5257 32.5542 27.1799 33.2459 26.4881C33.9365 25.7975 34.2818 24.9669 34.2818 23.9963C34.2818 23.0257 33.9365 22.1951 33.2459 21.5046C32.5542 20.8128 31.723 20.4669 30.7524 20.4669C29.7818 20.4669 28.9512 20.8128 28.2606 21.5046C27.5689 22.1951 27.223 23.0257 27.223 23.9963C27.223 24.9669 27.5689 25.7975 28.2606 26.4881C28.9512 27.1799 29.7818 27.5257 30.7524 27.5257Z" fill="url(#paint1_linear_221_144)"/>
<defs>
<linearGradient id="paint0_linear_221_144" x1="6.6859" y1="15.279" x2="42.0994" y2="14.5929" gradientUnits="userSpaceOnUse">
<stop stop-color="#008AD4"/>
<stop offset="1" stop-color="#00D1FF"/>
</linearGradient>
<linearGradient id="paint1_linear_221_144" x1="19.8958" y1="23.5927" x2="38.978" y2="23.1611" gradientUnits="userSpaceOnUse">
<stop stop-color="#008AD4"/>
<stop offset="1" stop-color="#00D1FF"/>
</linearGradient>
</defs>
</svg>
